<svg width="1440" height="1024" viewBox="0 0 1440 1024" fill="none" xmlns="http://www.w3.org/2000/svg">
<g opacity="0.1">
<path d="M1130.69 285.658C1121.78 299.596 1108.29 333.505 1102.66 348.718C1102.12 350.832 1099.28 357.846 1092.15 368.996L1092.15 368.997C1083.24 382.935 1069.88 403.841 1061.61 420.634C1053.33 437.428 1051.39 455.819 1053.57 479.293C1055.74 502.766 1078.53 524.693 1098.81 535.198C1119.09 545.703 1142.56 543.527 1195.9 513.816C1249.24 484.105 1248.9 496.157 1326.92 496.94C1404.94 497.722 1409.49 436.837 1407.66 401.312C1405.82 365.788 1361.78 342.551 1337.39 326.964C1313 311.377 1287.35 290.079 1266.16 261.812C1244.96 233.545 1208.81 232.524 1183.11 238.184C1157.41 243.844 1141.82 268.235 1130.69 285.658Z" fill="url(#paint0_linear_19_4)"/>
<ellipse cx="1085.86" cy="157.896" rx="64.852" ry="92.4121" transform="rotate(-22.6209 1085.86 157.896)" fill="url(#paint1_linear_19_4)"/>
<ellipse cx="64.852" cy="92.4121" rx="64.852" ry="92.4121" transform="matrix(-0.99925 0.0387098 0.0387098 0.99925 1312.71 26.5716)" fill="url(#paint2_linear_19_4)"/>
<ellipse cx="58.5374" cy="87.5087" rx="58.5374" ry="87.5087" transform="matrix(-0.990973 -0.134061 -0.134061 0.990973 1450.92 132.402)" fill="url(#paint3_linear_19_4)"/>
<ellipse cx="1007.24" cy="294.843" rx="58.5374" ry="87.5087" transform="rotate(-32.5437 1007.24 294.843)" fill="url(#paint4_linear_19_4)"/>
</g>
<g opacity="0.1">
<path d="M269.759 889.658C278.666 903.595 292.157 937.505 297.789 952.718C298.321 954.831 301.168 961.846 308.293 972.996L308.294 972.997C317.201 986.935 330.561 1007.84 338.839 1024.63C347.116 1041.43 349.055 1059.82 346.879 1083.29C344.704 1106.77 321.91 1128.69 301.632 1139.2C281.355 1149.7 257.881 1147.53 204.542 1117.82C151.204 1088.11 151.544 1100.16 73.525 1100.94C-4.49368 1101.72 -9.04977 1040.84 -7.21451 1005.31C-5.37925 969.787 38.6611 946.551 63.0524 930.964C87.4436 915.377 113.093 894.079 134.288 865.812C155.484 837.545 191.637 836.524 217.338 842.184C243.038 847.844 258.625 872.235 269.759 889.658Z" fill="url(#paint5_linear_19_4)"/>
<ellipse cx="64.852" cy="92.4121" rx="64.852" ry="92.4121" transform="matrix(-0.92307 -0.384632 -0.384632 0.92307 409.991 701.537)" fill="url(#paint6_linear_19_4)"/>
<ellipse cx="148.959" cy="725.425" rx="64.852" ry="92.4121" transform="rotate(2.21846 148.959 725.425)" fill="url(#paint7_linear_19_4)"/>
<ellipse cx="19.2617" cy="815.273" rx="58.5374" ry="87.5087" transform="rotate(-7.70431 19.2617 815.273)" fill="url(#paint8_linear_19_4)"/>
<ellipse cx="58.5374" cy="87.5087" rx="58.5374" ry="87.5087" transform="matrix(-0.842981 -0.537943 -0.537943 0.842981 489.626 856.564)" fill="url(#paint9_linear_19_4)"/>
</g>
<g opacity="0.1">
<path d="M335.226 328.412C329.882 336.776 321.786 357.124 318.407 366.252C318.087 367.52 316.379 371.729 312.103 378.42L312.103 378.42C306.758 386.784 298.742 399.329 293.774 409.406C288.807 419.483 287.644 430.519 288.95 444.604C290.255 458.69 303.932 471.847 316.1 478.151C328.268 484.454 342.354 483.149 374.36 465.32C406.366 447.492 406.162 454.724 452.978 455.193C499.793 455.663 502.527 419.129 501.426 397.812C500.325 376.495 473.898 362.552 459.262 353.199C444.626 343.845 429.235 331.065 416.516 314.103C403.798 297.141 382.103 296.529 366.682 299.925C351.26 303.322 341.907 317.958 335.226 328.412Z" fill="url(#paint10_linear_19_4)"/>
<ellipse cx="308.329" cy="251.748" rx="38.9149" ry="55.4526" transform="rotate(-22.6209 308.329 251.748)" fill="url(#paint11_linear_19_4)"/>
<ellipse cx="38.9149" cy="55.4526" rx="38.9149" ry="55.4526" transform="matrix(-0.99925 0.0387098 0.0387098 0.99925 444.452 172.946)" fill="url(#paint12_linear_19_4)"/>
<ellipse cx="35.1258" cy="52.5103" rx="35.1258" ry="52.5103" transform="matrix(-0.990973 -0.134061 -0.134061 0.990973 527.387 236.45)" fill="url(#paint13_linear_19_4)"/>
<ellipse cx="261.151" cy="333.924" rx="35.1258" ry="52.5103" transform="rotate(-32.5437 261.151 333.924)" fill="url(#paint14_linear_19_4)"/>
</g>
<g opacity="0.1">
<path d="M1222.08 945.412C1227.42 953.776 1235.52 974.123 1238.9 983.252C1239.22 984.52 1240.92 988.729 1245.2 995.42L1245.2 995.42C1250.55 1003.78 1258.56 1016.33 1263.53 1026.41C1268.5 1036.48 1269.66 1047.52 1268.35 1061.6C1267.05 1075.69 1253.37 1088.85 1241.2 1095.15C1229.04 1101.45 1214.95 1100.15 1182.94 1082.32C1150.94 1064.49 1151.14 1071.72 1104.33 1072.19C1057.51 1072.66 1054.78 1036.13 1055.88 1014.81C1056.98 993.495 1083.41 979.552 1098.04 970.198C1112.68 960.845 1128.07 948.065 1140.79 931.103C1153.51 914.141 1175.2 913.529 1190.62 916.925C1206.04 920.321 1215.4 934.958 1222.08 945.412Z" fill="url(#paint15_linear_19_4)"/>
<ellipse cx="38.9149" cy="55.4526" rx="38.9149" ry="55.4526" transform="matrix(-0.92307 -0.384632 -0.384632 0.92307 1306.23 832.529)" fill="url(#paint16_linear_19_4)"/>
<ellipse cx="1149.59" cy="846.863" rx="38.9149" ry="55.4526" transform="rotate(2.21846 1149.59 846.863)" fill="url(#paint17_linear_19_4)"/>
<ellipse cx="1071.77" cy="900.777" rx="35.1258" ry="52.5103" transform="rotate(-7.70431 1071.77 900.777)" fill="url(#paint18_linear_19_4)"/>
<ellipse cx="35.1258" cy="52.5103" rx="35.1258" ry="52.5103" transform="matrix(-0.842981 -0.537943 -0.537943 0.842981 1354.01 925.554)" fill="url(#paint19_linear_19_4)"/>
</g>
<defs>
<linearGradient id="paint0_linear_19_4" x1="1186.1" y1="237.525" x2="1247.79" y2="517.652" gradientUnits="userSpaceOnUse">
<stop stop-color="#F47A7A"/>
<stop offset="1" stop-color="#FFDCC2"/>
</linearGradient>
<linearGradient id="paint1_linear_19_4" x1="1085.86" y1="65.4838" x2="1085.86" y2="250.308" gradientUnits="userSpaceOnUse">
<stop stop-color="#F47A7A"/>
<stop offset="1" stop-color="#FFDCC2"/>
</linearGradient>
<linearGradient id="paint2_linear_19_4" x1="64.852" y1="0" x2="64.852" y2="184.824" gradientUnits="userSpaceOnUse">
<stop stop-color="#F47A7A"/>
<stop offset="1" stop-color="#FFDCC2"/>
</linearGradient>
<linearGradient id="paint3_linear_19_4" x1="58.5374" y1="0" x2="58.5374" y2="175.017" gradientUnits="userSpaceOnUse">
<stop stop-color="#F47A7A"/>
<stop offset="1" stop-color="#FFDCC2"/>
</linearGradient>
<linearGradient id="paint4_linear_19_4" x1="1007.24" y1="207.334" x2="1007.24" y2="382.352" gradientUnits="userSpaceOnUse">
<stop stop-color="#F47A7A"/>
<stop offset="1" stop-color="#FFDCC2"/>
</linearGradient>
<linearGradient id="paint5_linear_19_4" x1="214.344" y1="841.525" x2="152.653" y2="1121.65" gradientUnits="userSpaceOnUse">
<stop stop-color="#F47A7A"/>
<stop offset="1" stop-color="#FFDCC2"/>
</linearGradient>
<linearGradient id="paint6_linear_19_4" x1="64.852" y1="0" x2="64.852" y2="184.824" gradientUnits="userSpaceOnUse">
<stop stop-color="#F47A7A"/>
<stop offset="1" stop-color="#FFDCC2"/>
</linearGradient>
<linearGradient id="paint7_linear_19_4" x1="148.959" y1="633.013" x2="148.959" y2="817.837" gradientUnits="userSpaceOnUse">
<stop stop-color="#F47A7A"/>
<stop offset="1" stop-color="#FFDCC2"/>
</linearGradient>
<linearGradient id="paint8_linear_19_4" x1="19.2617" y1="727.764" x2="19.2617" y2="902.782" gradientUnits="userSpaceOnUse">
<stop stop-color="#F47A7A"/>
<stop offset="1" stop-color="#FFDCC2"/>
</linearGradient>
<linearGradient id="paint9_linear_19_4" x1="58.5374" y1="0" x2="58.5374" y2="175.017" gradientUnits="userSpaceOnUse">
<stop stop-color="#F47A7A"/>
<stop offset="1" stop-color="#FFDCC2"/>
</linearGradient>
<linearGradient id="paint10_linear_19_4" x1="368.478" y1="299.53" x2="405.496" y2="467.622" gradientUnits="userSpaceOnUse">
<stop stop-color="#F47A7A"/>
<stop offset="1" stop-color="#FFDCC2"/>
</linearGradient>
<linearGradient id="paint11_linear_19_4" x1="308.329" y1="196.295" x2="308.329" y2="307.2" gradientUnits="userSpaceOnUse">
<stop stop-color="#F47A7A"/>
<stop offset="1" stop-color="#FFDCC2"/>
</linearGradient>
<linearGradient id="paint12_linear_19_4" x1="38.9149" y1="0" x2="38.9149" y2="110.905" gradientUnits="userSpaceOnUse">
<stop stop-color="#F47A7A"/>
<stop offset="1" stop-color="#FFDCC2"/>
</linearGradient>
<linearGradient id="paint13_linear_19_4" x1="35.1258" y1="0" x2="35.1258" y2="105.021" gradientUnits="userSpaceOnUse">
<stop stop-color="#F47A7A"/>
<stop offset="1" stop-color="#FFDCC2"/>
</linearGradient>
<linearGradient id="paint14_linear_19_4" x1="261.151" y1="281.414" x2="261.151" y2="386.434" gradientUnits="userSpaceOnUse">
<stop stop-color="#F47A7A"/>
<stop offset="1" stop-color="#FFDCC2"/>
</linearGradient>
<linearGradient id="paint15_linear_19_4" x1="1188.83" y1="916.53" x2="1151.81" y2="1084.62" gradientUnits="userSpaceOnUse">
<stop stop-color="#F47A7A"/>
<stop offset="1" stop-color="#FFDCC2"/>
</linearGradient>
<linearGradient id="paint16_linear_19_4" x1="38.9149" y1="0" x2="38.9149" y2="110.905" gradientUnits="userSpaceOnUse">
<stop stop-color="#F47A7A"/>
<stop offset="1" stop-color="#FFDCC2"/>
</linearGradient>
<linearGradient id="paint17_linear_19_4" x1="1149.59" y1="791.41" x2="1149.59" y2="902.316" gradientUnits="userSpaceOnUse">
<stop stop-color="#F47A7A"/>
<stop offset="1" stop-color="#FFDCC2"/>
</linearGradient>
<linearGradient id="paint18_linear_19_4" x1="1071.77" y1="848.267" x2="1071.77" y2="953.287" gradientUnits="userSpaceOnUse">
<stop stop-color="#F47A7A"/>
<stop offset="1" stop-color="#FFDCC2"/>
</linearGradient>
<linearGradient id="paint19_linear_19_4" x1="35.1258" y1="0" x2="35.1258" y2="105.021" gradientUnits="userSpaceOnUse">
<stop stop-color="#F47A7A"/>
<stop offset="1" stop-color="#FFDCC2"/>
</linearGradient>
</defs>
</svg>
