<svg width="1448" height="1032" viewBox="0 0 1448 1032" fill="none" xmlns="http://www.w3.org/2000/svg">
<g clip-path="url(#clip0_23_85)" filter="url(#filter0_d_23_85)">
<rect width="1440" height="1024" transform="translate(4)" fill="url(#paint0_linear_23_85)"/>
<g opacity="0.1">
<path d="M1134.69 285.658C1125.78 299.596 1112.29 333.505 1106.66 348.718C1106.12 350.832 1103.28 357.846 1096.15 368.996L1096.15 368.997C1087.24 382.935 1073.88 403.841 1065.61 420.634C1057.33 437.428 1055.39 455.819 1057.57 479.293C1059.74 502.766 1082.53 524.693 1102.81 535.198C1123.09 545.703 1146.56 543.527 1199.9 513.816C1253.24 484.105 1252.9 496.157 1330.92 496.94C1408.94 497.722 1413.49 436.837 1411.66 401.312C1409.82 365.788 1365.78 342.551 1341.39 326.964C1317 311.377 1291.35 290.079 1270.16 261.812C1248.96 233.545 1212.81 232.524 1187.11 238.184C1161.41 243.844 1145.82 268.235 1134.69 285.658Z" fill="url(#paint1_linear_23_85)"/>
<ellipse cx="1089.86" cy="157.896" rx="64.852" ry="92.4121" transform="rotate(-22.6209 1089.86 157.896)" fill="url(#paint2_linear_23_85)"/>
<ellipse cx="64.852" cy="92.4121" rx="64.852" ry="92.4121" transform="matrix(-0.99925 0.0387098 0.0387098 0.99925 1316.71 26.5716)" fill="url(#paint3_linear_23_85)"/>
<ellipse cx="58.5374" cy="87.5087" rx="58.5374" ry="87.5087" transform="matrix(-0.990973 -0.134061 -0.134061 0.990973 1454.92 132.402)" fill="url(#paint4_linear_23_85)"/>
<ellipse cx="1011.24" cy="294.843" rx="58.5374" ry="87.5087" transform="rotate(-32.5437 1011.24 294.843)" fill="url(#paint5_linear_23_85)"/>
</g>
<g opacity="0.1">
<path d="M273.759 889.658C282.666 903.595 296.156 937.505 301.789 952.718C302.321 954.831 305.168 961.846 312.293 972.996L312.294 972.997C321.201 986.935 334.561 1007.84 342.838 1024.63C351.116 1041.43 353.054 1059.82 350.879 1083.29C348.704 1106.77 325.91 1128.69 305.632 1139.2C285.354 1149.7 261.881 1147.53 208.542 1117.82C155.204 1088.11 155.544 1100.16 77.525 1100.94C-0.493754 1101.72 -5.04985 1040.84 -3.21459 1005.31C-1.37932 969.787 42.661 946.551 67.0523 930.964C91.4435 915.377 117.093 894.079 138.288 865.812C159.484 837.545 195.637 836.524 221.338 842.184C247.038 847.844 262.625 872.235 273.759 889.658Z" fill="url(#paint6_linear_23_85)"/>
<ellipse cx="64.852" cy="92.4121" rx="64.852" ry="92.4121" transform="matrix(-0.92307 -0.384632 -0.384632 0.92307 413.991 701.537)" fill="url(#paint7_linear_23_85)"/>
<ellipse cx="152.959" cy="725.425" rx="64.852" ry="92.4121" transform="rotate(2.21846 152.959 725.425)" fill="url(#paint8_linear_23_85)"/>
<ellipse cx="23.2617" cy="815.273" rx="58.5374" ry="87.5087" transform="rotate(-7.70431 23.2617 815.273)" fill="url(#paint9_linear_23_85)"/>
<ellipse cx="58.5374" cy="87.5087" rx="58.5374" ry="87.5087" transform="matrix(-0.842981 -0.537943 -0.537943 0.842981 493.626 856.564)" fill="url(#paint10_linear_23_85)"/>
</g>
<g opacity="0.1">
<path d="M339.226 328.412C333.882 336.776 325.786 357.124 322.407 366.252C322.087 367.52 320.379 371.729 316.103 378.42L316.103 378.42C310.758 386.784 302.742 399.329 297.774 409.406C292.807 419.483 291.644 430.519 292.95 444.604C294.255 458.69 307.932 471.847 320.1 478.151C332.268 484.454 346.354 483.149 378.36 465.32C410.366 447.492 410.162 454.724 456.978 455.193C503.793 455.663 506.527 419.129 505.426 397.812C504.325 376.495 477.898 362.552 463.262 353.199C448.626 343.845 433.235 331.065 420.516 314.103C407.798 297.141 386.104 296.529 370.682 299.925C355.26 303.322 345.907 317.958 339.226 328.412Z" fill="url(#paint11_linear_23_85)"/>
<ellipse cx="312.329" cy="251.748" rx="38.9149" ry="55.4526" transform="rotate(-22.6209 312.329 251.748)" fill="url(#paint12_linear_23_85)"/>
<ellipse cx="38.9149" cy="55.4526" rx="38.9149" ry="55.4526" transform="matrix(-0.99925 0.0387098 0.0387098 0.99925 448.452 172.946)" fill="url(#paint13_linear_23_85)"/>
<ellipse cx="35.1258" cy="52.5103" rx="35.1258" ry="52.5103" transform="matrix(-0.990973 -0.134061 -0.134061 0.990973 531.387 236.45)" fill="url(#paint14_linear_23_85)"/>
<ellipse cx="265.151" cy="333.924" rx="35.1258" ry="52.5103" transform="rotate(-32.5437 265.151 333.924)" fill="url(#paint15_linear_23_85)"/>
</g>
<g opacity="0.1">
<path d="M1226.08 945.412C1231.42 953.776 1239.52 974.123 1242.9 983.252C1243.22 984.52 1244.93 988.729 1249.2 995.42L1249.2 995.42C1254.55 1003.78 1262.56 1016.33 1267.53 1026.41C1272.5 1036.48 1273.66 1047.52 1272.35 1061.6C1271.05 1075.69 1257.37 1088.85 1245.2 1095.15C1233.04 1101.45 1218.95 1100.15 1186.94 1082.32C1154.94 1064.49 1155.14 1071.72 1108.33 1072.19C1061.51 1072.66 1058.78 1036.13 1059.88 1014.81C1060.98 993.495 1087.41 979.552 1102.04 970.198C1116.68 960.845 1132.07 948.065 1144.79 931.103C1157.51 914.141 1179.2 913.529 1194.62 916.925C1210.04 920.321 1219.4 934.958 1226.08 945.412Z" fill="url(#paint16_linear_23_85)"/>
<ellipse cx="38.9149" cy="55.4526" rx="38.9149" ry="55.4526" transform="matrix(-0.92307 -0.384632 -0.384632 0.92307 1310.23 832.529)" fill="url(#paint17_linear_23_85)"/>
<ellipse cx="1153.59" cy="846.863" rx="38.9149" ry="55.4526" transform="rotate(2.21846 1153.59 846.863)" fill="url(#paint18_linear_23_85)"/>
<ellipse cx="1075.77" cy="900.777" rx="35.1258" ry="52.5103" transform="rotate(-7.70431 1075.77 900.777)" fill="url(#paint19_linear_23_85)"/>
<ellipse cx="35.1258" cy="52.5103" rx="35.1258" ry="52.5103" transform="matrix(-0.842981 -0.537943 -0.537943 0.842981 1358.01 925.554)" fill="url(#paint20_linear_23_85)"/>
</g>
</g>
<defs>
<filter id="filter0_d_23_85" x="0" y="0" width="1448" height="1032" filterUnits="userSpaceOnUse" color-interpolation-filters="sRGB">
<feFlood flood-opacity="0" result="BackgroundImageFix"/>
<feColorMatrix in="SourceAlpha" type="matrix" values="0 0 0 0 0 0 0 0 0 0 0 0 0 0 0 0 0 0 127 0" result="hardAlpha"/>
<feOffset dy="4"/>
<feGaussianBlur stdDeviation="2"/>
<feComposite in2="hardAlpha" operator="out"/>
<feColorMatrix type="matrix" values="0 0 0 0 0 0 0 0 0 0 0 0 0 0 0 0 0 0 0.25 0"/>
<feBlend mode="normal" in2="BackgroundImageFix" result="effect1_dropShadow_23_85"/>
<feBlend mode="normal" in="SourceGraphic" in2="effect1_dropShadow_23_85" result="shape"/>
</filter>
<linearGradient id="paint0_linear_23_85" x1="2.44787e-07" y1="298.5" x2="1440" y2="293" gradientUnits="userSpaceOnUse">
<stop stop-color="white"/>
<stop offset="0.933289" stop-color="#FFEEFF"/>
</linearGradient>
<linearGradient id="paint1_linear_23_85" x1="1190.1" y1="237.525" x2="1251.79" y2="517.652" gradientUnits="userSpaceOnUse">
<stop stop-color="#F47A7A"/>
<stop offset="1" stop-color="#FFDCC2"/>
</linearGradient>
<linearGradient id="paint2_linear_23_85" x1="1089.86" y1="65.4838" x2="1089.86" y2="250.308" gradientUnits="userSpaceOnUse">
<stop stop-color="#F47A7A"/>
<stop offset="1" stop-color="#FFDCC2"/>
</linearGradient>
<linearGradient id="paint3_linear_23_85" x1="64.852" y1="0" x2="64.852" y2="184.824" gradientUnits="userSpaceOnUse">
<stop stop-color="#F47A7A"/>
<stop offset="1" stop-color="#FFDCC2"/>
</linearGradient>
<linearGradient id="paint4_linear_23_85" x1="58.5374" y1="0" x2="58.5374" y2="175.017" gradientUnits="userSpaceOnUse">
<stop stop-color="#F47A7A"/>
<stop offset="1" stop-color="#FFDCC2"/>
</linearGradient>
<linearGradient id="paint5_linear_23_85" x1="1011.24" y1="207.334" x2="1011.24" y2="382.352" gradientUnits="userSpaceOnUse">
<stop stop-color="#F47A7A"/>
<stop offset="1" stop-color="#FFDCC2"/>
</linearGradient>
<linearGradient id="paint6_linear_23_85" x1="218.344" y1="841.525" x2="156.653" y2="1121.65" gradientUnits="userSpaceOnUse">
<stop stop-color="#F47A7A"/>
<stop offset="1" stop-color="#FFDCC2"/>
</linearGradient>
<linearGradient id="paint7_linear_23_85" x1="64.852" y1="0" x2="64.852" y2="184.824" gradientUnits="userSpaceOnUse">
<stop stop-color="#F47A7A"/>
<stop offset="1" stop-color="#FFDCC2"/>
</linearGradient>
<linearGradient id="paint8_linear_23_85" x1="152.959" y1="633.013" x2="152.959" y2="817.837" gradientUnits="userSpaceOnUse">
<stop stop-color="#F47A7A"/>
<stop offset="1" stop-color="#FFDCC2"/>
</linearGradient>
<linearGradient id="paint9_linear_23_85" x1="23.2617" y1="727.764" x2="23.2617" y2="902.782" gradientUnits="userSpaceOnUse">
<stop stop-color="#F47A7A"/>
<stop offset="1" stop-color="#FFDCC2"/>
</linearGradient>
<linearGradient id="paint10_linear_23_85" x1="58.5374" y1="0" x2="58.5374" y2="175.017" gradientUnits="userSpaceOnUse">
<stop stop-color="#F47A7A"/>
<stop offset="1" stop-color="#FFDCC2"/>
</linearGradient>
<linearGradient id="paint11_linear_23_85" x1="372.478" y1="299.53" x2="409.496" y2="467.622" gradientUnits="userSpaceOnUse">
<stop stop-color="#F47A7A"/>
<stop offset="1" stop-color="#FFDCC2"/>
</linearGradient>
<linearGradient id="paint12_linear_23_85" x1="312.329" y1="196.295" x2="312.329" y2="307.2" gradientUnits="userSpaceOnUse">
<stop stop-color="#F47A7A"/>
<stop offset="1" stop-color="#FFDCC2"/>
</linearGradient>
<linearGradient id="paint13_linear_23_85" x1="38.9149" y1="0" x2="38.9149" y2="110.905" gradientUnits="userSpaceOnUse">
<stop stop-color="#F47A7A"/>
<stop offset="1" stop-color="#FFDCC2"/>
</linearGradient>
<linearGradient id="paint14_linear_23_85" x1="35.1258" y1="0" x2="35.1258" y2="105.021" gradientUnits="userSpaceOnUse">
<stop stop-color="#F47A7A"/>
<stop offset="1" stop-color="#FFDCC2"/>
</linearGradient>
<linearGradient id="paint15_linear_23_85" x1="265.151" y1="281.414" x2="265.151" y2="386.434" gradientUnits="userSpaceOnUse">
<stop stop-color="#F47A7A"/>
<stop offset="1" stop-color="#FFDCC2"/>
</linearGradient>
<linearGradient id="paint16_linear_23_85" x1="1192.83" y1="916.53" x2="1155.81" y2="1084.62" gradientUnits="userSpaceOnUse">
<stop stop-color="#F47A7A"/>
<stop offset="1" stop-color="#FFDCC2"/>
</linearGradient>
<linearGradient id="paint17_linear_23_85" x1="38.9149" y1="0" x2="38.9149" y2="110.905" gradientUnits="userSpaceOnUse">
<stop stop-color="#F47A7A"/>
<stop offset="1" stop-color="#FFDCC2"/>
</linearGradient>
<linearGradient id="paint18_linear_23_85" x1="1153.59" y1="791.41" x2="1153.59" y2="902.316" gradientUnits="userSpaceOnUse">
<stop stop-color="#F47A7A"/>
<stop offset="1" stop-color="#FFDCC2"/>
</linearGradient>
<linearGradient id="paint19_linear_23_85" x1="1075.77" y1="848.267" x2="1075.77" y2="953.287" gradientUnits="userSpaceOnUse">
<stop stop-color="#F47A7A"/>
<stop offset="1" stop-color="#FFDCC2"/>
</linearGradient>
<linearGradient id="paint20_linear_23_85" x1="35.1258" y1="0" x2="35.1258" y2="105.021" gradientUnits="userSpaceOnUse">
<stop stop-color="#F47A7A"/>
<stop offset="1" stop-color="#FFDCC2"/>
</linearGradient>
<clipPath id="clip0_23_85">
<rect width="1440" height="1024" fill="white" transform="translate(4)"/>
</clipPath>
</defs>
</svg>
