<svg width="1928" height="1048" viewBox="0 0 1928 1048" fill="none" xmlns="http://www.w3.org/2000/svg">
<g clip-path="url(#clip0_23_85)" filter="url(#filter0_d_23_85)">
<rect width="1920" height="1040" transform="translate(4)" fill="url(#paint0_linear_23_85)"/>
<g opacity="0.1">
<path d="M1600.69 246.658C1591.78 260.596 1578.29 294.505 1572.66 309.718C1572.12 311.832 1569.28 318.846 1562.15 329.996L1562.15 329.997C1553.24 343.935 1539.88 364.841 1531.61 381.634C1523.33 398.428 1521.39 416.819 1523.57 440.293C1525.74 463.766 1548.53 485.693 1568.81 496.198C1589.09 506.703 1612.56 504.527 1665.9 474.816C1719.24 445.105 1718.9 457.157 1796.92 457.94C1874.94 458.722 1879.49 397.837 1877.66 362.312C1875.82 326.788 1831.78 303.551 1807.39 287.964C1783 272.377 1757.35 251.079 1736.16 222.812C1714.96 194.545 1678.81 193.524 1653.11 199.184C1627.41 204.844 1611.82 229.235 1600.69 246.658Z" fill="url(#paint1_linear_23_85)"/>
<ellipse cx="1555.86" cy="118.896" rx="64.852" ry="92.4121" transform="rotate(-22.6209 1555.86 118.896)" fill="url(#paint2_linear_23_85)"/>
<ellipse cx="64.852" cy="92.4121" rx="64.852" ry="92.4121" transform="matrix(-0.99925 0.0387098 0.0387098 0.99925 1782.71 -12.4284)" fill="url(#paint3_linear_23_85)"/>
<ellipse cx="58.5374" cy="87.5087" rx="58.5374" ry="87.5087" transform="matrix(-0.990973 -0.134061 -0.134061 0.990973 1920.92 93.4016)" fill="url(#paint4_linear_23_85)"/>
<ellipse cx="1477.24" cy="255.843" rx="58.5374" ry="87.5087" transform="rotate(-32.5437 1477.24 255.843)" fill="url(#paint5_linear_23_85)"/>
</g>
<g opacity="0.1">
<path d="M288.759 822.658C297.666 836.595 311.156 870.505 316.789 885.718C317.321 887.831 320.168 894.846 327.293 905.996L327.294 905.997C336.201 919.935 349.561 940.841 357.838 957.634C366.116 974.428 368.054 992.819 365.879 1016.29C363.704 1039.77 340.91 1061.69 320.632 1072.2C300.354 1082.7 276.881 1080.53 223.542 1050.82C170.204 1021.11 170.544 1033.16 92.525 1033.94C14.5062 1034.72 9.95015 973.837 11.7854 938.312C13.6207 902.787 57.661 879.551 82.0523 863.964C106.444 848.377 132.093 827.079 153.288 798.812C174.484 770.545 210.637 769.524 236.338 775.184C262.038 780.844 277.625 805.235 288.759 822.658Z" fill="url(#paint6_linear_23_85)"/>
<ellipse cx="64.852" cy="92.4121" rx="64.852" ry="92.4121" transform="matrix(-0.92307 -0.384632 -0.384632 0.92307 428.991 634.537)" fill="url(#paint7_linear_23_85)"/>
<ellipse cx="167.959" cy="658.425" rx="64.852" ry="92.4121" transform="rotate(2.21846 167.959 658.425)" fill="url(#paint8_linear_23_85)"/>
<ellipse cx="38.2617" cy="748.273" rx="58.5374" ry="87.5087" transform="rotate(-7.70431 38.2617 748.273)" fill="url(#paint9_linear_23_85)"/>
<ellipse cx="58.5374" cy="87.5087" rx="58.5374" ry="87.5087" transform="matrix(-0.842981 -0.537943 -0.537943 0.842981 508.626 789.564)" fill="url(#paint10_linear_23_85)"/>
</g>
<g opacity="0.1">
<path d="M354.226 261.412C348.881 269.776 340.786 290.124 337.406 299.252C337.087 300.52 335.379 304.729 331.103 311.42L331.103 311.42C325.758 319.784 317.741 332.329 312.774 342.406C307.807 352.483 306.644 363.519 307.949 377.604C309.255 391.69 322.932 404.847 335.1 411.151C347.268 417.454 361.353 416.149 393.36 398.32C425.366 380.492 425.162 387.724 471.977 388.193C518.793 388.663 521.527 352.129 520.426 330.812C519.324 309.495 492.898 295.552 478.262 286.199C463.625 276.845 448.235 264.065 435.516 247.103C422.797 230.141 401.103 229.529 385.681 232.925C370.26 236.322 360.907 250.958 354.226 261.412Z" fill="url(#paint11_linear_23_85)"/>
<ellipse cx="327.328" cy="184.748" rx="38.9149" ry="55.4526" transform="rotate(-22.6209 327.328 184.748)" fill="url(#paint12_linear_23_85)"/>
<ellipse cx="38.9149" cy="55.4526" rx="38.9149" ry="55.4526" transform="matrix(-0.99925 0.0387098 0.0387098 0.99925 463.452 105.946)" fill="url(#paint13_linear_23_85)"/>
<ellipse cx="35.1258" cy="52.5103" rx="35.1258" ry="52.5103" transform="matrix(-0.990973 -0.134061 -0.134061 0.990973 546.387 169.45)" fill="url(#paint14_linear_23_85)"/>
<ellipse cx="280.151" cy="266.924" rx="35.1258" ry="52.5103" transform="rotate(-32.5437 280.151 266.924)" fill="url(#paint15_linear_23_85)"/>
</g>
<g opacity="0.1">
<path d="M958.226 560.412C952.881 568.776 944.786 589.124 941.407 598.252C941.087 599.52 939.379 603.729 935.103 610.42L935.103 610.421C929.758 618.784 921.741 631.329 916.774 641.406C911.807 651.483 910.644 662.519 911.949 676.604C913.255 690.69 926.932 703.847 939.1 710.151C951.268 716.454 965.354 715.149 997.36 697.321C1029.37 679.492 1029.16 686.724 1075.98 687.193C1122.79 687.663 1125.53 651.129 1124.43 629.812C1123.32 608.495 1096.9 594.552 1082.26 585.199C1067.63 575.845 1052.23 563.065 1039.52 546.103C1026.8 529.141 1005.1 528.529 989.682 531.925C974.26 535.322 964.907 549.958 958.226 560.412Z" fill="url(#paint16_linear_23_85)"/>
<ellipse cx="931.329" cy="483.748" rx="38.9149" ry="55.4526" transform="rotate(-22.6209 931.329 483.748)" fill="url(#paint17_linear_23_85)"/>
<ellipse cx="38.9149" cy="55.4526" rx="38.9149" ry="55.4526" transform="matrix(-0.99925 0.0387098 0.0387098 0.99925 1067.45 404.946)" fill="url(#paint18_linear_23_85)"/>
<ellipse cx="35.1258" cy="52.5103" rx="35.1258" ry="52.5103" transform="matrix(-0.990973 -0.134061 -0.134061 0.990973 1150.39 468.45)" fill="url(#paint19_linear_23_85)"/>
<ellipse cx="884.151" cy="565.924" rx="35.1258" ry="52.5103" transform="rotate(-32.5437 884.151 565.924)" fill="url(#paint20_linear_23_85)"/>
</g>
<g opacity="0.1">
<path d="M1692.08 906.412C1697.42 914.776 1705.52 935.123 1708.9 944.252C1709.22 945.52 1710.92 949.729 1715.2 956.42L1715.2 956.42C1720.54 964.784 1728.56 977.329 1733.53 987.406C1738.5 997.483 1739.66 1008.52 1738.35 1022.6C1737.05 1036.69 1723.37 1049.85 1711.2 1056.15C1699.04 1062.45 1684.95 1061.15 1652.94 1043.32C1620.94 1025.49 1621.14 1032.72 1574.33 1033.19C1527.51 1033.66 1524.78 997.128 1525.88 975.812C1526.98 954.495 1553.41 940.552 1568.04 931.198C1582.68 921.845 1598.07 909.065 1610.79 892.103C1623.51 875.141 1645.2 874.529 1660.62 877.925C1676.04 881.321 1685.4 895.958 1692.08 906.412Z" fill="url(#paint21_linear_23_85)"/>
<ellipse cx="38.9149" cy="55.4526" rx="38.9149" ry="55.4526" transform="matrix(-0.92307 -0.384632 -0.384632 0.92307 1776.22 793.529)" fill="url(#paint22_linear_23_85)"/>
<ellipse cx="1619.59" cy="807.863" rx="38.9149" ry="55.4526" transform="rotate(2.21846 1619.59 807.863)" fill="url(#paint23_linear_23_85)"/>
<ellipse cx="1541.76" cy="861.777" rx="35.1258" ry="52.5103" transform="rotate(-7.70431 1541.76 861.777)" fill="url(#paint24_linear_23_85)"/>
<ellipse cx="35.1258" cy="52.5103" rx="35.1258" ry="52.5103" transform="matrix(-0.842981 -0.537943 -0.537943 0.842981 1824.01 886.554)" fill="url(#paint25_linear_23_85)"/>
</g>
</g>
<defs>
<filter id="filter0_d_23_85" x="0" y="0" width="1928" height="1048" filterUnits="userSpaceOnUse" color-interpolation-filters="sRGB">
<feFlood flood-opacity="0" result="BackgroundImageFix"/>
<feColorMatrix in="SourceAlpha" type="matrix" values="0 0 0 0 0 0 0 0 0 0 0 0 0 0 0 0 0 0 127 0" result="hardAlpha"/>
<feOffset dy="4"/>
<feGaussianBlur stdDeviation="2"/>
<feComposite in2="hardAlpha" operator="out"/>
<feColorMatrix type="matrix" values="0 0 0 0 0 0 0 0 0 0 0 0 0 0 0 0 0 0 0.25 0"/>
<feBlend mode="normal" in2="BackgroundImageFix" result="effect1_dropShadow_23_85"/>
<feBlend mode="normal" in="SourceGraphic" in2="effect1_dropShadow_23_85" result="shape"/>
</filter>
<linearGradient id="paint0_linear_23_85" x1="3.26382e-07" y1="303.164" x2="1919.98" y2="293.537" gradientUnits="userSpaceOnUse">
<stop stop-color="white"/>
<stop offset="0.933289" stop-color="#FFEEFF"/>
</linearGradient>
<linearGradient id="paint1_linear_23_85" x1="1656.1" y1="198.525" x2="1717.79" y2="478.652" gradientUnits="userSpaceOnUse">
<stop stop-color="#F47A7A"/>
<stop offset="1" stop-color="#FFDCC2"/>
</linearGradient>
<linearGradient id="paint2_linear_23_85" x1="1555.86" y1="26.4838" x2="1555.86" y2="211.308" gradientUnits="userSpaceOnUse">
<stop stop-color="#F47A7A"/>
<stop offset="1" stop-color="#FFDCC2"/>
</linearGradient>
<linearGradient id="paint3_linear_23_85" x1="64.852" y1="0" x2="64.852" y2="184.824" gradientUnits="userSpaceOnUse">
<stop stop-color="#F47A7A"/>
<stop offset="1" stop-color="#FFDCC2"/>
</linearGradient>
<linearGradient id="paint4_linear_23_85" x1="58.5374" y1="0" x2="58.5374" y2="175.017" gradientUnits="userSpaceOnUse">
<stop stop-color="#F47A7A"/>
<stop offset="1" stop-color="#FFDCC2"/>
</linearGradient>
<linearGradient id="paint5_linear_23_85" x1="1477.24" y1="168.334" x2="1477.24" y2="343.352" gradientUnits="userSpaceOnUse">
<stop stop-color="#F47A7A"/>
<stop offset="1" stop-color="#FFDCC2"/>
</linearGradient>
<linearGradient id="paint6_linear_23_85" x1="233.344" y1="774.525" x2="171.653" y2="1054.65" gradientUnits="userSpaceOnUse">
<stop stop-color="#F47A7A"/>
<stop offset="1" stop-color="#FFDCC2"/>
</linearGradient>
<linearGradient id="paint7_linear_23_85" x1="64.852" y1="0" x2="64.852" y2="184.824" gradientUnits="userSpaceOnUse">
<stop stop-color="#F47A7A"/>
<stop offset="1" stop-color="#FFDCC2"/>
</linearGradient>
<linearGradient id="paint8_linear_23_85" x1="167.959" y1="566.013" x2="167.959" y2="750.837" gradientUnits="userSpaceOnUse">
<stop stop-color="#F47A7A"/>
<stop offset="1" stop-color="#FFDCC2"/>
</linearGradient>
<linearGradient id="paint9_linear_23_85" x1="38.2617" y1="660.764" x2="38.2617" y2="835.782" gradientUnits="userSpaceOnUse">
<stop stop-color="#F47A7A"/>
<stop offset="1" stop-color="#FFDCC2"/>
</linearGradient>
<linearGradient id="paint10_linear_23_85" x1="58.5374" y1="0" x2="58.5374" y2="175.017" gradientUnits="userSpaceOnUse">
<stop stop-color="#F47A7A"/>
<stop offset="1" stop-color="#FFDCC2"/>
</linearGradient>
<linearGradient id="paint11_linear_23_85" x1="387.478" y1="232.53" x2="424.496" y2="400.622" gradientUnits="userSpaceOnUse">
<stop stop-color="#F47A7A"/>
<stop offset="1" stop-color="#FFDCC2"/>
</linearGradient>
<linearGradient id="paint12_linear_23_85" x1="327.328" y1="129.295" x2="327.328" y2="240.2" gradientUnits="userSpaceOnUse">
<stop stop-color="#F47A7A"/>
<stop offset="1" stop-color="#FFDCC2"/>
</linearGradient>
<linearGradient id="paint13_linear_23_85" x1="38.9149" y1="0" x2="38.9149" y2="110.905" gradientUnits="userSpaceOnUse">
<stop stop-color="#F47A7A"/>
<stop offset="1" stop-color="#FFDCC2"/>
</linearGradient>
<linearGradient id="paint14_linear_23_85" x1="35.1258" y1="0" x2="35.1258" y2="105.021" gradientUnits="userSpaceOnUse">
<stop stop-color="#F47A7A"/>
<stop offset="1" stop-color="#FFDCC2"/>
</linearGradient>
<linearGradient id="paint15_linear_23_85" x1="280.151" y1="214.414" x2="280.151" y2="319.434" gradientUnits="userSpaceOnUse">
<stop stop-color="#F47A7A"/>
<stop offset="1" stop-color="#FFDCC2"/>
</linearGradient>
<linearGradient id="paint16_linear_23_85" x1="991.478" y1="531.53" x2="1028.5" y2="699.622" gradientUnits="userSpaceOnUse">
<stop stop-color="#F47A7A"/>
<stop offset="1" stop-color="#FFDCC2"/>
</linearGradient>
<linearGradient id="paint17_linear_23_85" x1="931.329" y1="428.295" x2="931.329" y2="539.2" gradientUnits="userSpaceOnUse">
<stop stop-color="#F47A7A"/>
<stop offset="1" stop-color="#FFDCC2"/>
</linearGradient>
<linearGradient id="paint18_linear_23_85" x1="38.9149" y1="0" x2="38.9149" y2="110.905" gradientUnits="userSpaceOnUse">
<stop stop-color="#F47A7A"/>
<stop offset="1" stop-color="#FFDCC2"/>
</linearGradient>
<linearGradient id="paint19_linear_23_85" x1="35.1258" y1="0" x2="35.1258" y2="105.021" gradientUnits="userSpaceOnUse">
<stop stop-color="#F47A7A"/>
<stop offset="1" stop-color="#FFDCC2"/>
</linearGradient>
<linearGradient id="paint20_linear_23_85" x1="884.151" y1="513.414" x2="884.151" y2="618.434" gradientUnits="userSpaceOnUse">
<stop stop-color="#F47A7A"/>
<stop offset="1" stop-color="#FFDCC2"/>
</linearGradient>
<linearGradient id="paint21_linear_23_85" x1="1658.83" y1="877.53" x2="1621.81" y2="1045.62" gradientUnits="userSpaceOnUse">
<stop stop-color="#F47A7A"/>
<stop offset="1" stop-color="#FFDCC2"/>
</linearGradient>
<linearGradient id="paint22_linear_23_85" x1="38.9149" y1="0" x2="38.9149" y2="110.905" gradientUnits="userSpaceOnUse">
<stop stop-color="#F47A7A"/>
<stop offset="1" stop-color="#FFDCC2"/>
</linearGradient>
<linearGradient id="paint23_linear_23_85" x1="1619.59" y1="752.41" x2="1619.59" y2="863.316" gradientUnits="userSpaceOnUse">
<stop stop-color="#F47A7A"/>
<stop offset="1" stop-color="#FFDCC2"/>
</linearGradient>
<linearGradient id="paint24_linear_23_85" x1="1541.76" y1="809.267" x2="1541.76" y2="914.287" gradientUnits="userSpaceOnUse">
<stop stop-color="#F47A7A"/>
<stop offset="1" stop-color="#FFDCC2"/>
</linearGradient>
<linearGradient id="paint25_linear_23_85" x1="35.1258" y1="0" x2="35.1258" y2="105.021" gradientUnits="userSpaceOnUse">
<stop stop-color="#F47A7A"/>
<stop offset="1" stop-color="#FFDCC2"/>
</linearGradient>
<clipPath id="clip0_23_85">
<rect width="1920" height="1040" fill="white" transform="translate(4)"/>
</clipPath>
</defs>
</svg>
