<svg width="170" height="68" viewBox="0 0 170 68" fill="none" xmlns="http://www.w3.org/2000/svg">
<path fill-rule="evenodd" clip-rule="evenodd" d="M31.5 45.5L37 33L37.9412 31L41 24.5L43.2647 21L41 19.5L37.9412 17.5L34 15.5L30 14.5H27L31.5 11L35.5 9.5L42 8.5L49 8H55.5L59 8.07143L66.5 4.5L78 1.5L89.5 1L98 2.5L106 5.5L110 8H118.5L131 8.5L137.5 10L142.5 12.5L143.75 15H141L138 15.5L136 16L132 17.5L130.5 18.5L129 19.5L127 21L126.125 22.5L127 23.5L130 28L131.5 31.5L135.5 38L138 43.5L139 46.5L142.5 45L145.5 44.5H151.5L155 45L158.5 46.5L163.5 50.5L168 56L169 59.5L168 62.5L164.5 65.5L160 67L146 66.5L139 65L134.5 62.5L131.5 60L131 58H38.5L35 63L29 65.5L21 67H13L7 66L2.5 63.5L1 60.5V57.5L3 54L5.5 51.5L11 47L15.5 45.5L21.5 44.5H26.5L29.5 45L31.5 45.5Z" fill="#676164"/>
<path d="M110 8L106 5.5L98 2.5L89.5 1L78 1.5L66.5 4.5L59 8.07143M110 8H118.5L131 8.5L137.5 10L142.5 12.5L143.75 15M110 8L112.5 9.5L115 11L117.5 13.5L123.5 19.5L126.125 22.5M131.5 31.5L132.5 30.5L135.5 28.5L139 24.5L143 19.5L144 15.5L143.75 15M131.5 31.5L135.5 38L138 43.5L139 46.5L142.5 45L145.5 44.5H151.5L155 45L158.5 46.5L163.5 50.5L168 56L169 59.5L168 62.5L164.5 65.5L160 67L146 66.5L139 65L134.5 62.5L131.5 60L131 58H38.5L35 63L29 65.5L21 67H13L7 66L2.5 63.5L1 60.5V57.5L3 54L5.5 51.5L11 47L15.5 45.5L21.5 44.5H26.5L29.5 45L31.5 45.5L37 33L37.9412 31M131.5 31.5L130 28L127 23.5L126.125 22.5M37.9412 31L41 24.5L43.2647 21M37.9412 31L27.5 19.5L26.5 17.5V15.5L27 14.5M27 14.5H30L34 15.5L37.9412 17.5L41 19.5L43.2647 21M27 14.5L31.5 11L35.5 9.5L42 8.5L49 8H55.5L59 8.07143M43.2647 21L46.5 16L56 9.5L59 8.07143M126.125 22.5L127 21L129 19.5L130.5 18.5L132 17.5L136 16L138 15.5L141 15H143.75" stroke="black"/>
<path d="M95 32.5L93 38L94 39.5C94 39.5 96.0445 41.728 97.5 43C98.4415 43.8227 98.9118 44.3844 100 45C100.915 45.5177 101.489 45.712 102.5 46C103.828 46.3781 104.621 46.4293 106 46.5C108.154 46.6105 109.393 46.4601 111.5 46C113.31 45.6047 114.33 45.3024 116 44.5C118.148 43.4675 119.21 42.5741 121 41C122.037 40.0881 122.652 39.5898 123.5 38.5C124.84 36.7767 126 33.5 126 33.5L125 32L123 29.5L121 27C121 27 119.362 24.9431 118 24C116.923 23.2544 115 22.5 115 22.5C115 22.5 112.606 21.6215 111 21.5C109.237 21.3665 108.033 21.7008 106.5 22C104.357 22.4181 103.242 23.1844 101.5 24.5C99.6236 25.9169 97.5 29 97.5 29L95 32.5Z" fill="#FFCF4B"/>
<path d="M75 32.0303L77 37.5303L76 39.0303C76 39.0303 73.9555 41.2583 72.5 42.5303C71.5585 43.353 71.0882 43.9146 70 44.5303C69.0848 45.048 68.5113 45.2423 67.5 45.5303C66.1721 45.9084 65.3789 45.9596 64 46.0303C61.8461 46.1407 60.6071 45.9904 58.5 45.5303C56.6902 45.135 55.6696 44.8326 54 44.0303C51.8517 42.9978 50.7897 42.1044 49 40.5303C47.9632 39.6184 47.3477 39.1201 46.5 38.0303C45.1597 36.307 44 33.0303 44 33.0303L45 31.5303L47 29.0303L49 26.5303C49 26.5303 50.6377 24.4733 52 23.5303C53.077 22.7847 55 22.0303 55 22.0303C55 22.0303 57.3944 21.1518 59 21.0302C60.7631 20.8967 61.9668 21.2311 63.5 21.5303C65.6427 21.9483 66.7578 22.7147 68.5 24.0303C70.3764 25.4471 72.5 28.5303 72.5 28.5303L75 32.0303Z" fill="#FFCF4B"/>
<circle cx="107" cy="35" r="10" fill="#1E1E1E"/>
<circle cx="107" cy="35" r="10" fill="#1E1E1E"/>
<circle cx="58" cy="34" r="10" fill="#1E1E1E"/>
<circle cx="58" cy="34" r="10" fill="#1E1E1E"/>
<path d="M96.5 49C106.5 46.5 127.5 41.6 131.5 42" stroke="black"/>
<path d="M73.6544 49.0231C63.6544 46.5231 42.6544 41.6231 38.6544 42.0231" stroke="black"/>
<path d="M97 50.9743C107.225 49.6686 128.655 47.2744 132.581 48.1425" stroke="black"/>
<path d="M73.1544 50.9973C62.9297 49.6917 41.4989 47.2975 37.5738 48.1655" stroke="black"/>
<path d="M98 52.5409C108.224 53.854 129.566 56.9374 133.146 58.7665" stroke="black"/>
<path d="M72.1544 52.564C61.9306 53.877 40.5881 56.9605 37.0084 58.7896" stroke="black"/>
<path d="M80.6964 42.5567C81.4964 41.3567 84.8631 40.6642 87.1964 41.1642C88.6964 41.4856 90.1964 42.5567 90.1964 43.0567C90.1964 44.1881 88.1667 46.3901 86.5 47.5567C86.5 47.9341 86.0492 48.3982 87.1964 50.0567C89 52.6642 93.6964 53.0567 97.1964 51.0567C100.696 49.0567 101.196 49.0567 99.6964 51.0567C98.1964 53.0567 92.6964 56.0567 90.1964 56.0567C88.1964 56.0567 85.8333 52.3308 85 50.6642C84 51.9975 81.5964 55.2567 79.1964 56.0567C76.1964 57.0567 73.6964 54.0567 70.6964 51.0567C67.6964 48.0567 69.1964 49.0567 71.1964 49.0567C73.1964 49.0567 73.1964 51.0567 77.1964 53.0567C80.3964 54.6567 82.8631 50.0567 83.6964 47.5567C82.3631 46.3901 79.8964 43.7567 80.6964 42.5567Z" fill="#FEECF5"/>
</svg>
