<svg width="247" height="77" viewBox="0 0 247 77" fill="none" xmlns="http://www.w3.org/2000/svg">
<g filter="url(#filter0_d_15_2)">
<path d="M24.4513 20.396C24.8708 21.0524 25.5061 22.6495 25.7714 23.366C25.7965 23.4655 25.9306 23.7959 26.2662 24.3211L26.2662 24.3211C26.6857 24.9776 27.3149 25.9622 27.7048 26.7531C28.0947 27.5441 28.186 28.4103 28.0835 29.5159C27.981 30.6214 26.9075 31.6542 25.9524 32.1489C24.9974 32.6437 23.8918 32.5412 21.3796 31.1419C18.8675 29.7425 18.8835 30.3101 15.2089 30.347C11.5344 30.3839 11.3198 27.5163 11.4062 25.8431C11.4927 24.1699 13.5669 23.0756 14.7157 22.3414C15.8645 21.6073 17.0725 20.6042 18.0708 19.2729C19.0691 17.9415 20.7719 17.8935 21.9823 18.16C23.1927 18.4266 23.9269 19.5754 24.4513 20.396Z" fill="url(#paint0_linear_15_2)"/>
<ellipse cx="3.05443" cy="4.35247" rx="3.05443" ry="4.35247" transform="matrix(-0.92307 -0.384632 -0.384632 0.92307 31.056 11.5358)" fill="url(#paint1_linear_15_2)"/>
<ellipse cx="18.7618" cy="12.6608" rx="3.05443" ry="4.35247" transform="rotate(2.21846 18.7618 12.6608)" fill="url(#paint2_linear_15_2)"/>
<ellipse cx="12.6532" cy="16.8926" rx="2.75702" ry="4.12153" transform="rotate(-7.70431 12.6532 16.8926)" fill="url(#paint3_linear_15_2)"/>
<ellipse cx="2.75702" cy="4.12153" rx="2.75702" ry="4.12153" transform="matrix(-0.842981 -0.537943 -0.537943 0.842981 34.8067 18.8373)" fill="url(#paint4_linear_15_2)"/>
</g>
<g filter="url(#filter1_d_15_2)">
<path d="M38.6854 8.05503C38.4507 8.42234 38.0952 9.31598 37.9468 9.71688C37.9327 9.77257 37.8577 9.95742 37.6699 10.2513L37.6699 10.2513C37.4352 10.6186 37.0831 11.1696 36.865 11.6121C36.6468 12.0547 36.5957 12.5393 36.6531 13.1579C36.7104 13.7766 37.3111 14.3544 37.8455 14.6312C38.3799 14.9081 38.9985 14.8507 40.4041 14.0678C41.8098 13.2848 41.8008 13.6024 43.8568 13.623C45.9129 13.6436 46.033 12.0391 45.9846 11.1029C45.9362 10.1667 44.7756 9.55437 44.1328 9.1436C43.49 8.73283 42.8141 8.17155 42.2555 7.42661C41.697 6.68168 40.7442 6.65479 40.0669 6.80395C39.3896 6.9531 38.9788 7.59589 38.6854 8.05503Z" fill="url(#paint5_linear_15_2)"/>
<ellipse cx="37.5042" cy="4.68812" rx="1.70906" ry="2.43536" transform="rotate(-22.6209 37.5042 4.68812)" fill="url(#paint6_linear_15_2)"/>
<ellipse cx="1.70906" cy="2.43536" rx="1.70906" ry="2.43536" transform="matrix(-0.99925 0.0387098 0.0387098 0.99925 43.4824 1.22723)" fill="url(#paint7_linear_15_2)"/>
<ellipse cx="1.54265" cy="2.30614" rx="1.54265" ry="2.30614" transform="matrix(-0.990973 -0.134061 -0.134061 0.990973 47.1248 4.01624)" fill="url(#paint8_linear_15_2)"/>
<ellipse cx="35.4322" cy="8.2971" rx="1.54265" ry="2.30614" transform="rotate(-32.5437 35.4322 8.2971)" fill="url(#paint9_linear_15_2)"/>
</g>
<g filter="url(#filter2_d_15_2)">
<path d="M10.645 47.75C10.68 39.42 16.98 35.22 23.21 35.22C28.285 35.22 33.78 37.985 34.725 44.53C32.59 44.53 30.7 44.53 28.565 44.53C27.69 42.045 25.835 40.925 23.21 40.925C19.535 40.925 17.12 43.69 17.12 47.75C17.12 51.355 19.5 54.505 23.21 54.54C25.87 54.54 28.005 53.21 28.67 50.585C30.77 50.585 32.695 50.585 34.83 50.585C33.92 57.515 28.425 60.245 23.21 60.245C16.98 60.28 10.68 56.08 10.645 47.75ZM31.12 52.79H30.7C29.16 55.765 26.465 57.2 23.21 57.2C18.695 57.2 14.075 53.84 14.075 47.75C14.075 41.625 18.695 38.23 23.21 38.23C26.36 38.23 29.02 39.56 30.56 42.29H30.98C29.37 39.385 26.5 37.915 23.21 37.915C18.485 37.915 13.725 41.38 13.725 47.75C13.725 54.085 18.485 57.585 23.21 57.55C26.57 57.55 29.65 55.87 31.12 52.79ZM45.6146 54.715C47.4346 54.715 49.3246 53.735 49.3246 51.74V35.5C51.3196 35.5 53.3146 35.5 55.2746 35.5V51.845C55.2746 57.235 50.6546 60.35 45.6146 60.35C40.6096 60.35 35.9546 57.235 35.9546 51.845V35.5C37.9146 35.5 39.9096 35.5 41.8696 35.5V51.74C41.8696 53.735 43.7946 54.715 45.6146 54.715ZM45.6146 57.725C49.1146 57.725 52.5446 55.555 52.5446 51.74V37.845H52.1597V51.74C52.1597 55.38 48.9396 57.34 45.6146 57.34C42.2896 57.34 39.0696 55.38 39.0696 51.74V37.845H38.6846V51.74C38.6846 55.555 42.1146 57.725 45.6146 57.725ZM68.7034 51.11C76.4734 51.04 76.5084 38.16 68.7034 38.16H60.7934V57.655H61.1784V51.11H68.7034ZM64.1534 60C62.0534 60 59.9534 60 57.8884 60C57.8884 51.845 57.8884 43.69 57.8884 35.5C61.4234 35.5 65.0634 35.5 68.6684 35.5C80.3934 35.535 80.3934 53.735 68.6684 53.735H64.1534V60ZM61.1784 38.475H68.7034C75.9484 38.475 76.0534 50.69 68.7034 50.69H61.1784V38.475ZM68.6334 48.1C72.0634 48.1 72.2734 41.135 68.6334 41.1C67.1634 41.065 65.5884 41.1 64.1534 41.1C64.1534 43.095 64.1534 46.105 64.1534 48.1H68.6334ZM77.2202 47.75C77.2552 39.42 83.5552 35.22 89.7852 35.22C94.8602 35.22 100.355 37.985 101.3 44.53C99.1652 44.53 97.2752 44.53 95.1402 44.53C94.2652 42.045 92.4102 40.925 89.7852 40.925C86.1102 40.925 83.6952 43.69 83.6952 47.75C83.6952 51.355 86.0752 54.505 89.7852 54.54C92.4452 54.54 94.5802 53.21 95.2452 50.585C97.3452 50.585 99.2702 50.585 101.405 50.585C100.495 57.515 95.0002 60.245 89.7852 60.245C83.5552 60.28 77.2552 56.08 77.2202 47.75ZM97.6952 52.79H97.2752C95.7352 55.765 93.0402 57.2 89.7852 57.2C85.2702 57.2 80.6502 53.84 80.6502 47.75C80.6502 41.625 85.2702 38.23 89.7852 38.23C92.9352 38.23 95.5952 39.56 97.1352 42.29H97.5552C95.9452 39.385 93.0752 37.915 89.7852 37.915C85.0602 37.915 80.3002 41.38 80.3002 47.75C80.3002 54.085 85.0602 57.585 89.7852 57.55C93.1452 57.55 96.2252 55.87 97.6952 52.79ZM111.98 39.525L105.4 53.77H118.665L112.015 39.525H111.98ZM118.28 60L116.845 56.92H107.185L105.75 60H99.6248V59.09L110.65 35.185H113.345L124.405 59.09V60H118.28ZM120.87 57.62L112.085 38.755H111.875L103.16 57.62H103.615L105.26 54.155H118.805L120.415 57.62H120.87ZM111.98 45.65L114.57 51.285H109.46L111.98 45.65ZM126.086 41.1H120.066C120.066 39.21 120.066 37.355 120.066 35.5H138.266C138.266 37.355 138.266 39.21 138.266 41.1H132.281V60C130.216 60 128.151 60 126.086 60V41.1ZM129.026 57.655H129.376C129.376 51.215 129.341 44.845 129.306 38.44H135.886V38.125H122.411V38.44H129.026V57.655ZM136.92 51.985V49.255H145.39V51.985H136.92ZM150.754 52.51C150.754 55.625 158.419 55.555 158.419 52.685C158.419 50.97 156.389 50.69 153.939 50.55C148.619 50.165 145.119 48.345 145.049 43.025C144.839 32.455 163.879 32.455 163.739 43.025C161.534 43.025 159.924 43.025 157.789 43.025C157.789 39.77 151.209 40.05 150.999 42.955C150.859 44.81 152.679 45.195 154.884 45.44C159.749 45.965 164.509 46.595 164.509 52.72C164.509 63.01 144.559 63.29 144.699 52.51C146.799 52.51 148.619 52.51 150.754 52.51ZM159.959 40.785H160.414C157.789 35.85 147.674 37.11 147.814 43.025C147.919 47.225 150.859 47.855 154.429 48.135C157.824 48.38 161.219 48.45 161.219 52.685C161.219 58.11 151.349 59.195 148.584 54.75H148.164C150.684 59.755 161.604 58.635 161.604 52.685C161.604 48.345 158.069 48.03 154.499 47.75C151.069 47.505 148.234 46.945 148.234 43.025C148.199 37.53 157.334 36.41 159.959 40.785ZM186.014 35.5V60C183.879 60 181.744 60 179.609 60V50.165H172.049V60C169.914 60 167.744 60 165.644 60V35.5C167.744 35.5 169.914 35.5 172.049 35.5V44.39H179.609V35.5C181.744 35.5 183.879 35.5 186.014 35.5ZM168.619 57.62H169.004V47.505H182.654V57.62H183.004V37.845H182.654V47.085H169.004V37.845H168.619V57.62ZM190.344 47.785C190.344 60.945 209.349 60.945 209.349 47.785C209.349 34.625 190.344 34.66 190.344 47.785ZM212.394 47.785C212.394 64.76 187.264 64.76 187.264 47.785C187.264 30.845 212.394 30.845 212.394 47.785ZM193.704 47.785C193.704 38.965 205.989 38.965 205.989 47.785C205.989 56.675 193.704 56.675 193.704 47.785ZM208.999 47.785C208.999 35.255 190.694 35.01 190.694 47.785C190.694 60.595 208.999 60.35 208.999 47.785ZM224.419 51.11C232.189 51.04 232.224 38.16 224.419 38.16H216.509V57.655H216.894V51.11H224.419ZM219.869 60C217.769 60 215.669 60 213.604 60C213.604 51.845 213.604 43.69 213.604 35.5C217.139 35.5 220.779 35.5 224.384 35.5C236.109 35.535 236.109 53.735 224.384 53.735H219.869V60ZM216.894 38.475H224.419C231.664 38.475 231.769 50.69 224.419 50.69H216.894V38.475ZM224.349 48.1C227.779 48.1 227.989 41.135 224.349 41.1C222.879 41.065 221.304 41.1 219.869 41.1C219.869 43.095 219.869 46.105 219.869 48.1H224.349Z" fill="url(#paint10_linear_15_2)"/>
<path d="M55.3979 35H36.3979C35.5646 33.8333 36.1079 29.645 37.3979 29C45.3979 25 52.8979 29 54.3979 30C55.5979 30.8 55.8979 33.6666 55.3979 35Z" fill="white" stroke="url(#paint11_linear_15_2)"/>
<path d="M52.0907 24.9217C53.1856 25.3582 52.9752 27.3352 52.5724 28.5L50.3979 27.5L45.3979 27L41.3871 27.2661L39.5669 27.9888C38.8956 26.9696 38.4783 25.3677 39.5669 24.9217C46.3721 22.1333 50.2256 24.178 52.0907 24.9217Z" fill="white" stroke="url(#paint12_linear_15_2)"/>
<path d="M44.3979 20C42.7979 20 41.7312 22.3333 41.3979 23.5C41.7312 23.5 42.7979 23.4 44.3979 23C45.9979 22.6 49.3979 23.5 50.8979 24C51.2312 24 51.8979 23.3 51.8979 20.5C51.8979 17.7 47.8979 16.3333 45.8979 16C46.5646 16.1667 47.8979 16.9 47.8979 18.5C47.8979 20.5 46.3979 20 44.3979 20Z" fill="white" stroke="url(#paint13_linear_15_2)"/>
<path d="M38.3979 30.5L39.8979 30" stroke="#ED9554" stroke-width="0.5"/>
<path d="M50.8979 32L52.3979 31.5" stroke="#ED9554" stroke-width="0.5"/>
<path d="M42.3979 26L40.8979 25.5" stroke="#ED9554" stroke-width="0.5"/>
<path d="M48.3979 31L46.8979 30.5" stroke="#ED54A7" stroke-width="0.5"/>
<path d="M41.8979 31L43.3979 30.5" stroke="#ED54A7" stroke-width="0.5"/>
<path d="M45.8979 21.9944L47.4557 21.7235" stroke="#ED54A7" stroke-width="0.5"/>
<path d="M47.8979 26L49.3979 25.5" stroke="#ED54A7" stroke-width="0.5"/>
<path d="M45.3979 33L43.8979 32.5" stroke="#8FCA8A" stroke-width="0.5"/>
<path d="M46.3979 26L44.8979 25.5" stroke="#8FCA8A" stroke-width="0.5"/>
<path d="M50.3979 22L48.8979 21.5" stroke="#8FCA8A" stroke-width="0.5"/>
<path d="M45.5 51.238C46.3478 51.238 47.2283 50.4099 47.2283 48.7239V35C48.1576 35 49.087 35 50 35V48.8127C50 53.3676 47.8478 56 45.5 56C43.1685 56 41 53.3676 41 48.8127V35C41.913 35 42.8424 35 43.7554 35V48.7239C43.7554 50.4099 44.6522 51.238 45.5 51.238ZM45.5 53.7817C47.1304 53.7817 48.7283 51.9479 48.7283 48.7239V36.9817H48.5489V48.7239C48.5489 51.8 47.0489 53.4563 45.5 53.4563C43.9511 53.4563 42.4511 51.8 42.4511 48.7239V36.9817H42.2717V48.7239C42.2717 51.9479 43.8696 53.7817 45.5 53.7817Z" fill="url(#paint14_linear_15_2)"/>
<path d="M45.5 48.1451C45.971 48.1451 46.4601 47.4746 46.4601 46.1099V35C46.9764 35 47.4928 35 48 35V46.1817C48 49.869 46.8043 52 45.5 52C44.2047 52 43 49.869 43 46.1817V35C43.5072 35 44.0236 35 44.5308 35V46.1099C44.5308 47.4746 45.029 48.1451 45.5 48.1451ZM45.5 50.2042C46.4058 50.2042 47.2935 48.7197 47.2935 46.1099V36.6042H47.1938V46.1099C47.1938 48.6 46.3605 49.9408 45.5 49.9408C44.6395 49.9408 43.8062 48.6 43.8062 46.1099V36.6042H43.7065V46.1099C43.7065 48.7197 44.5942 50.2042 45.5 50.2042Z" fill="url(#paint15_linear_15_2)"/>
</g>
<defs>
<filter id="filter0_d_15_2" x="6.87822" y="8.30994" width="29.5863" height="30.0831" filterUnits="userSpaceOnUse" color-interpolation-filters="sRGB">
<feFlood flood-opacity="0" result="BackgroundImageFix"/>
<feColorMatrix in="SourceAlpha" type="matrix" values="0 0 0 0 0 0 0 0 0 0 0 0 0 0 0 0 0 0 127 0" result="hardAlpha"/>
<feOffset dy="2.987"/>
<feGaussianBlur stdDeviation="1.4935"/>
<feComposite in2="hardAlpha" operator="out"/>
<feColorMatrix type="matrix" values="0 0 0 0 0 0 0 0 0 0 0 0 0 0 0 0 0 0 0.25 0"/>
<feBlend mode="normal" in2="BackgroundImageFix" result="effect1_dropShadow_15_2"/>
<feBlend mode="normal" in="SourceGraphic" in2="effect1_dropShadow_15_2" result="shape"/>
</filter>
<filter id="filter1_d_15_2" x="31.9636" y="1.29248" width="16.5546" height="16.8325" filterUnits="userSpaceOnUse" color-interpolation-filters="sRGB">
<feFlood flood-opacity="0" result="BackgroundImageFix"/>
<feColorMatrix in="SourceAlpha" type="matrix" values="0 0 0 0 0 0 0 0 0 0 0 0 0 0 0 0 0 0 127 0" result="hardAlpha"/>
<feOffset dy="1.67133"/>
<feGaussianBlur stdDeviation="0.835667"/>
<feComposite in2="hardAlpha" operator="out"/>
<feColorMatrix type="matrix" values="0 0 0 0 0 0 0 0 0 0 0 0 0 0 0 0 0 0 0.25 0"/>
<feBlend mode="normal" in2="BackgroundImageFix" result="effect1_dropShadow_15_2"/>
<feBlend mode="normal" in="SourceGraphic" in2="effect1_dropShadow_15_2" result="shape"/>
</filter>
<filter id="filter2_d_15_2" x="0.645004" y="7.50677" width="245.464" height="69.2532" filterUnits="userSpaceOnUse" color-interpolation-filters="sRGB">
<feFlood flood-opacity="0" result="BackgroundImageFix"/>
<feColorMatrix in="SourceAlpha" type="matrix" values="0 0 0 0 0 0 0 0 0 0 0 0 0 0 0 0 0 0 127 0" result="hardAlpha"/>
<feOffset dy="2"/>
<feGaussianBlur stdDeviation="5"/>
<feComposite in2="hardAlpha" operator="out"/>
<feColorMatrix type="matrix" values="0 0 0 0 0.455 0 0 0 0 0.235842 0 0 0 0 0.235842 0 0 0 1 0"/>
<feBlend mode="normal" in2="BackgroundImageFix" result="effect1_dropShadow_15_2"/>
<feBlend mode="normal" in="SourceGraphic" in2="effect1_dropShadow_15_2" result="shape"/>
</filter>
<linearGradient id="paint0_linear_15_2" x1="21.8413" y1="18.129" x2="18.9357" y2="31.3225" gradientUnits="userSpaceOnUse">
<stop stop-color="#F47A7A"/>
<stop offset="1" stop-color="#FFDCC2"/>
</linearGradient>
<linearGradient id="paint1_linear_15_2" x1="3.05443" y1="0" x2="3.05443" y2="8.70494" gradientUnits="userSpaceOnUse">
<stop stop-color="#F47A7A"/>
<stop offset="1" stop-color="#FFDCC2"/>
</linearGradient>
<linearGradient id="paint2_linear_15_2" x1="18.7618" y1="8.30833" x2="18.7618" y2="17.0133" gradientUnits="userSpaceOnUse">
<stop stop-color="#F47A7A"/>
<stop offset="1" stop-color="#FFDCC2"/>
</linearGradient>
<linearGradient id="paint3_linear_15_2" x1="12.6532" y1="12.771" x2="12.6532" y2="21.0141" gradientUnits="userSpaceOnUse">
<stop stop-color="#F47A7A"/>
<stop offset="1" stop-color="#FFDCC2"/>
</linearGradient>
<linearGradient id="paint4_linear_15_2" x1="2.75702" y1="0" x2="2.75702" y2="8.24306" gradientUnits="userSpaceOnUse">
<stop stop-color="#F47A7A"/>
<stop offset="1" stop-color="#FFDCC2"/>
</linearGradient>
<linearGradient id="paint5_linear_15_2" x1="40.1458" y1="6.78657" x2="41.7716" y2="14.1688" gradientUnits="userSpaceOnUse">
<stop stop-color="#F47A7A"/>
<stop offset="1" stop-color="#FFDCC2"/>
</linearGradient>
<linearGradient id="paint6_linear_15_2" x1="37.5042" y1="2.25276" x2="37.5042" y2="7.12349" gradientUnits="userSpaceOnUse">
<stop stop-color="#F47A7A"/>
<stop offset="1" stop-color="#FFDCC2"/>
</linearGradient>
<linearGradient id="paint7_linear_15_2" x1="1.70906" y1="0" x2="1.70906" y2="4.87073" gradientUnits="userSpaceOnUse">
<stop stop-color="#F47A7A"/>
<stop offset="1" stop-color="#FFDCC2"/>
</linearGradient>
<linearGradient id="paint8_linear_15_2" x1="1.54265" y1="0" x2="1.54265" y2="4.61229" gradientUnits="userSpaceOnUse">
<stop stop-color="#F47A7A"/>
<stop offset="1" stop-color="#FFDCC2"/>
</linearGradient>
<linearGradient id="paint9_linear_15_2" x1="35.4322" y1="5.99096" x2="35.4322" y2="10.6032" gradientUnits="userSpaceOnUse">
<stop stop-color="#F47A7A"/>
<stop offset="1" stop-color="#FFDCC2"/>
</linearGradient>
<linearGradient id="paint10_linear_15_2" x1="122" y1="34" x2="122" y2="69" gradientUnits="userSpaceOnUse">
<stop stop-color="#F47A7A"/>
<stop offset="1" stop-color="#FFDCC2"/>
</linearGradient>
<linearGradient id="paint11_linear_15_2" x1="45.8147" y1="27.2571" x2="45.8147" y2="35" gradientUnits="userSpaceOnUse">
<stop stop-color="#F47A7A"/>
<stop offset="1" stop-color="#FFDCC2"/>
</linearGradient>
<linearGradient id="paint12_linear_15_2" x1="45.8979" y1="23.5" x2="45.8979" y2="28.5" gradientUnits="userSpaceOnUse">
<stop stop-color="#F47A7A"/>
<stop offset="1" stop-color="#FFDCC2"/>
</linearGradient>
<linearGradient id="paint13_linear_15_2" x1="46.6479" y1="16" x2="46.6479" y2="24" gradientUnits="userSpaceOnUse">
<stop stop-color="#F47A7A"/>
<stop offset="1" stop-color="#FFDCC2"/>
</linearGradient>
<linearGradient id="paint14_linear_15_2" x1="45.5" y1="35" x2="45.5" y2="56" gradientUnits="userSpaceOnUse">
<stop stop-color="#F47A7A"/>
<stop offset="1" stop-color="#FFDCC2"/>
</linearGradient>
<linearGradient id="paint15_linear_15_2" x1="45.5" y1="35" x2="45.5" y2="52" gradientUnits="userSpaceOnUse">
<stop stop-color="#F47A7A"/>
<stop offset="1" stop-color="#FFDCC2"/>
</linearGradient>
</defs>
</svg>
